<svg xmlns="http://www.w3.org/2000/svg" data-name="Layer 1" viewBox="0 0 3000 3000"><path fill="#242d4f" d="M2253.2,904.6s31.3-107.8,6.5-124c-14.3-9.3-30.8-3.1-30.8-3.1s-139-42.8-155.2-11.4-11.7,99.2,28.8,103.6S2204,924.5,2204,924.5Z" class="color242d4f svgShape"/><path fill="#242d4f" d="M2204,929.1a4.6,4.6,0,0,1-2.9-1.1c-.6-.5-60.5-49.6-99.1-53.8-13.6-1.4-24.7-9.4-32-23.1-14.3-26.5-11.3-65.8-.4-87.1,7.9-15.2,36.9-18,88.6-8.5a725.5,725.5,0,0,1,70.7,17.2c4.8-1.4,19.8-4.8,33.4,4.1,12,7.9,14.7,31.6,8,72.6a526.7,526.7,0,0,1-12.7,56.4,4.5,4.5,0,0,1-2.7,3l-49.2,19.9a3.3,3.3,0,0,1-1.7.4m-95.6-169.9c-22.7,0-28.9,5.7-30.6,9-9.9,19.3-12.2,55.5.2,78.6,6,11,14.4,17.2,25,18.3,37.5,4.1,90.4,45,101.8,54.1l44.6-18.1c11.6-40.6,23.5-106.4,7.8-116.6-12.1-7.9-26.5-2.7-26.7-2.7a4.1,4.1,0,0,1-2.9.1c-.4-.1-35-10.7-71.1-17.4-21.2-3.9-36.7-5.3-48.1-5.3m144.8,145.4Z" class="color242d4f svgShape"/><polygon fill="#242d4f" points="2319.2 2140.8 2327.9 2245.4 2103.1 2245.4 2176.6 2207.4 2180.8 2148.3 2319.2 2140.8" class="color242d4f svgShape"/><path fill="#242d4f" d="M2327.9,2250H2103.1a4.5,4.5,0,0,1-4.4-3.5,4.6,4.6,0,0,1,2.3-5.2l71.2-36.8,4-56.6a4.6,4.6,0,0,1,4.4-4.2l138.4-7.5a4.6,4.6,0,0,1,4.8,4.2l8.7,104.6a4.4,4.4,0,0,1-1.2,3.5,4.3,4.3,0,0,1-3.4,1.5m-205.9-9.2h201l-8-95.2-129.9,7-3.9,55.1a4.7,4.7,0,0,1-2.5,3.8Zm54.6-33.4Z" class="color242d4f svgShape"/><polygon fill="#242d4f" points="2064.5 2140.8 2073.2 2245.4 1848.4 2245.4 1921.9 2207.4 1926.1 2148.3 2064.5 2140.8" class="color242d4f svgShape"/><path fill="#242d4f" d="M2073.2,2250H1848.4a4.6,4.6,0,0,1-2.1-8.7l71.2-36.8,4-56.6a4.5,4.5,0,0,1,4.3-4.2l138.5-7.5a4.6,4.6,0,0,1,4.8,4.2l8.7,104.6a4.6,4.6,0,0,1-4.6,5m-205.9-9.2h200.9l-7.9-95.2-129.9,7-3.9,55.1a4.7,4.7,0,0,1-2.5,3.8Zm54.6-33.4Z" class="color242d4f svgShape"/><path fill="#ffffff" d="M2297.7,1380.1l26.5,768.2H2180.8l-30.3-335.2s-50.5-115.8-71-29.9,1.9,365.1,1.9,365.1H1920.7s-.2-718.7,120.5-810.4Z" class="colorfff svgShape"/><path fill="#242d4f" d="M2324.2,2152.8H2180.8a4.6,4.6,0,0,1-4.6-4.1L2146,1814.3c-10.3-23.5-31.5-59.4-45.5-58.2-6.5.6-12.4,10.6-16.6,28.2-20.1,84.3,1.8,360.8,2.1,363.6a5,5,0,0,1-1.2,3.5,4.8,4.8,0,0,1-3.4,1.4H1920.7a4.6,4.6,0,0,1-4.6-4.5c0-1.8.2-182.1,15-371.2,20.1-255,56.2-404,107.4-442.9a4.7,4.7,0,0,1,3.5-.8l256.4,42.2a4.5,4.5,0,0,1,3.8,4.4l26.6,768.1a4.4,4.4,0,0,1-1.3,3.3,4.5,4.5,0,0,1-3.3,1.4m-139.2-9.1h134.5L2293.2,1384l-250.7-41.3c-47.5,38.7-82.9,189-102.2,435.1-13.6,171.9-14.9,336.6-15,365.9h151.1c-3-39-20.6-281.2-1.4-361.5,5.4-22.7,13.5-34.2,24.7-35.2h1.4c24.8,0,50.7,57.7,53.6,64.4a3.3,3.3,0,0,1,.4,1.4Z" class="color242d4f svgShape"/><path fill="#4d97de" d="M2401.1,1217.8c-2.8-125.2-168.7-164.8-168.7-164.8-12.9-4.7-27.6-7.2-44.2-7.1a142.6,142.6,0,0,0-49.2,8.9s-120.7,41.1-164.6,141.5c23.4,17.3,41.1,40,41.1,40-19.2,80-18.9,154.8-18.9,154.8l315.5,8.3s17.4-89.1,10.5-177.9Z" class="color4d97de svgShape"/><path fill="#242d4f" d="M2312.1,1404h-.1l-315.5-8.3a4.6,4.6,0,0,1-4.5-4.5c0-.8-.1-75,18.5-153.7-4.5-5.6-19.9-23.5-38.8-37.5a4.7,4.7,0,0,1-1.5-5.5c23.2-52.9,67.5-89.3,100.5-110.5,35.3-22.5,64.8-32.8,66.8-33.5a148.6,148.6,0,0,1,50.7-9.2c16.5-.1,31.8,2.3,45.6,7.3,3.8.9,43.6,11,84.3,35.9,56.1,34.3,86.4,80.4,87.6,133.2a4.6,4.6,0,0,1-4.4,4.7l-73.8,3.5c5.9,86.8-10.7,173.5-10.9,174.4a4.6,4.6,0,0,1-4.5,3.7m-310.8-17.3,307,8c3.1-17.9,15.7-96,9.7-172.8a4.5,4.5,0,0,1,1.1-3.4,5.2,5.2,0,0,1,3.3-1.6l74-3.4c-2.7-48.3-30.5-89-82.9-121a320.3,320.3,0,0,0-82.1-35.1h-.5a123.6,123.6,0,0,0-42.6-6.8,138.7,138.7,0,0,0-47.7,8.6h-.1c-.3.1-30.2,10.5-65,32.8-31.3,20-72.8,54-95.4,103a247.2,247.2,0,0,1,39,38.6,4.5,4.5,0,0,1,.9,3.9c-16.3,67.5-18.5,132.1-18.7,149.3" class="color242d4f svgShape"/><path fill="#ffffff" d="M2094.8,834.3s-49.9,143.4,57.3,164v72.4s47.3,26.7,78.1,0V990.8a320.6,320.6,0,0,1,6.5-51.7c6.8.3,36.3-9.4,29.1-42.1-5.7-26.1-36.9-22.3-32.1-.1,0,0-43.2,12.6-49.7-32.7s-89.2-29.9-89.2-29.9" class="colorfff svgShape"/><path fill="#242d4f" d="M2196.2,1087.2c-23.8,0-45.1-11.7-46.4-12.5a4.6,4.6,0,0,1-2.3-4V1002c-25.2-5.6-43.8-18.6-55.3-38.5-29.1-50.5-2.9-127.4-1.8-130.7a4.8,4.8,0,0,1,3.5-3c2.2-.4,53.3-9.6,79.6,9.2a35.4,35.4,0,0,1,15,24.6c1.8,12.1,6.4,20.7,14,25.5s20.3,5.1,26.1,4.1c-.4-10.5,6.5-16.9,13.9-18.5,10.7-2.3,24,4.4,27.8,21.4s-1.8,27.7-7,33.9a40.8,40.8,0,0,1-22.8,13.4,314.5,314.5,0,0,0-5.7,47.5v79.8a4.8,4.8,0,0,1-1.6,3.5c-11.3,9.8-24.5,13-37,13m-39.6-19.3c9.4,4.6,44.7,19.7,69,.6V990.8c0-1,.6-23.3,6.6-52.6a4.6,4.6,0,0,1,4.7-3.7c2.2.2,12.5-2.2,19.4-10.4s7.3-15.5,5-26.1-10.5-15.7-16.9-14.4c-4.1.9-7.9,4.6-6.3,12.3a4.7,4.7,0,0,1-3.2,5.4c-.8.2-21.1,6-37.4-4.4-9.8-6.4-15.9-17.1-18.1-32a26.1,26.1,0,0,0-11.2-18.4c-20-14.4-59.4-9.7-69.9-8.1-4.3,13.7-22.3,78.6,1.9,120.5,10.7,18.5,28.4,30.2,52.7,34.9a4.5,4.5,0,0,1,3.7,4.5Z" class="color242d4f svgShape"/><path fill="#242d4f" d="M2153.4 905.1a9.8 9.8 0 109.7-9.7 9.7 9.7 0 00-9.7 9.7M2094.2 905.1a9.8 9.8 0 109.8-9.7 9.7 9.7 0 00-9.8 9.7M2113.7 943.1a4.6 4.6 0 01-2.2-8.6c18.5-10.1 19.1-43 19.1-43.4a4.6 4.6 0 014.6-4.5h0a4.6 4.6 0 014.6 4.6c0 1.6-.6 38.7-23.9 51.3a4.3 4.3 0 01-2.2.6M2153.2 962.1a67.4 67.4 0 01-7.7-.4 4.5 4.5 0 01-4.1-5 4.5 4.5 0 015-4.1c13.1 1.3 23.2-1 30.1-6.9a27.6 27.6 0 009.2-17.7 4.6 4.6 0 014.9-4.3 4.5 4.5 0 014.3 4.8 36.9 36.9 0 01-12.3 24.1c-7.4 6.3-17.2 9.5-29.4 9.5M2155.2 1003h-3.5a4.6 4.6 0 01.7-9.2c.3 0 37.2 2.2 52.3-23.4a4.7 4.7 0 016.3-1.7 4.6 4.6 0 011.6 6.3c-15.2 25.8-46.8 28.1-57.4 28.1" class="color242d4f svgShape"/><path fill="#ffffff" d="M2208.7,1542.4c259.9-61.6,192.4-324.6,192.4-324.6l-78.5,3.7-24.9,158.6-89,107.7Z" class="colorfff svgShape"/><path fill="#242d4f" d="M2208.7,1547a4.6,4.6,0,0,1-2.9-1,4.5,4.5,0,0,1-1.7-3.6v-54.6a4.8,4.8,0,0,1,1-2.9l88.2-106.7,24.8-157.4a4.6,4.6,0,0,1,4.3-3.9l78.5-3.7a4.7,4.7,0,0,1,4.7,3.5c.3,1.2,7.7,30.5,8,72.2.3,38.6-5.8,95.1-36.5,145.9-33.9,56.1-90.2,93.8-167.4,112.1h-1m4.6-57.6v47.2c71.7-18.2,124.2-54,155.9-106.5,29.5-48.8,35.5-103.5,35.2-140.8a334.1,334.1,0,0,0-6.9-66.7l-71,3.3-24.3,154.9a4.8,4.8,0,0,1-1,2.3Z" class="color242d4f svgShape"/><path fill="#ffffff" d="M2011.8,1410.7c-9.8-114.9,4.8-180.4,4.8-180.4l-42.2-34s-46.7,91.1-7.4,214.4Z" class="colorfff svgShape"/><path fill="#242d4f" d="M2011.8,1415.3H1967a4.6,4.6,0,0,1-4.4-3.2c-20.6-64.6-17.4-120.3-11.1-155.6,6.8-38.4,18.4-61.3,18.9-62.3a4.5,4.5,0,0,1,3.1-2.4,4.8,4.8,0,0,1,3.8,1l42.2,33.9a4.5,4.5,0,0,1,1.6,4.6c-.1.6-14.3,66.3-4.7,179a4.6,4.6,0,0,1-4.6,5m-41.5-9.2h36.5c-7.9-98.2,2.2-160.4,4.8-174l-35.4-28.5c-3.8,8.7-11,28-15.8,54.9-5.9,33.6-8.9,86.4,9.9,147.6" class="color242d4f svgShape"/><path fill="#242d4f" d="M2016.6 1234.9l-1.3-.2a4.7 4.7 0 01-3.1-5.8l18.1-59.7a4.6 4.6 0 015.7-3 4.6 4.6 0 013.1 5.7l-18.1 59.7a4.6 4.6 0 01-4.4 3.3M2322.6 1226.1a4.5 4.5 0 01-4.6-4.6v-47.1a4.6 4.6 0 014.6-4.6 4.7 4.7 0 014.6 4.6v47.1a4.6 4.6 0 01-4.6 4.6M2564.6 2250H554.3a4.6 4.6 0 110-9.2H2564.6a4.6 4.6 0 010 9.2" class="color242d4f svgShape"/><path fill="#ffffff" d="M1753.8,885.9h-2.2a63.5,63.5,0,0,0-61.3-47.1,56.8,56.8,0,0,0-5.9.3,94,94,0,0,0-176,0,56.8,56.8,0,0,0-5.9-.3,63.5,63.5,0,0,0,0,127h251.3a40,40,0,0,0,0-80" class="colorfff svgShape"/><path fill="#242d4f" d="M1753.8,970.5H1502.5a68.1,68.1,0,1,1,0-136.2h2.9a98.5,98.5,0,0,1,182,0h2.9a68.3,68.3,0,0,1,64.8,47,44.6,44.6,0,0,1-1.3,89.2m-251.3-127a59,59,0,0,0,0,117.9h251.3a35.5,35.5,0,0,0,0-70.9h-1.9a4.6,4.6,0,0,1-4.7-3.4,58.9,58.9,0,0,0-56.9-43.7l-5.5.2a4.5,4.5,0,0,1-4.7-2.9,89.4,89.4,0,0,0-167.4,0,4.5,4.5,0,0,1-4.7,2.9l-5.5-.2" class="color242d4f svgShape"/><path fill="#4d97de" d="M1794.6,864.8a61.7,61.7,0,1,1-61.7-61.7,61.7,61.7,0,0,1,61.7,61.7" class="color4d97de svgShape"/><path fill="#242d4f" d="M1732.9,931.1a66.3,66.3,0,1,1,66.3-66.3,66.4,66.4,0,0,1-66.3,66.3m0-123.4a57.1,57.1,0,1,0,57.1,57.1,57.1,57.1,0,0,0-57.1-57.1" class="color242d4f svgShape"/><path fill="#242d4f" d="M1722,895.2a4.4,4.4,0,0,1-3.2-1.3l-23.7-23.7a4.5,4.5,0,0,1,0-6.4,4.6,4.6,0,0,1,6.5,0l20.4,20.4,45.4-45.4a4.7,4.7,0,0,1,6.4,0,4.6,4.6,0,0,1,0,6.5l-48.5,48.6a4.6,4.6,0,0,1-3.3,1.3" class="color242d4f svgShape"/><path fill="#d0dbf7" d="M1306,1605.9c0,240.4-194.9,435.3-435.3,435.3s-435.3-194.9-435.3-435.3,194.9-435.3,435.3-435.3S1306,1365.5,1306,1605.9" class="colord0dbf7 svgShape"/><path fill="#242d4f" d="M870.7,2045.8c-117.5,0-228-45.7-311.1-128.8s-128.8-193.6-128.8-311.1,45.8-228,128.8-311.1S753.2,1166,870.7,1166s228,45.7,311.1,128.8,128.8,193.6,128.8,311.1-45.7,228-128.8,311.1-193.6,128.8-311.1,128.8m0-870.6c-237.5,0-430.7,193.2-430.7,430.7s193.2,430.7,430.7,430.7,430.7-193.2,430.7-430.7-193.2-430.7-430.7-430.7" class="color242d4f svgShape"/><path fill="#242d4f" d="M1306,1610.5H435.4a4.6,4.6,0,1,1,0-9.2H1306a4.6,4.6,0,0,1,0,9.2" class="color242d4f svgShape"/><path fill="#242d4f" d="M870.7 2045.8a4.6 4.6 0 01-4.6-4.6V1170.6a4.6 4.6 0 119.2 0v870.6a4.6 4.6 0 01-4.6 4.6M764.7 2032.8a4.7 4.7 0 01-3.7-1.8c-74.5-95.6-120.9-199.9-137.8-309.8-13.6-88-8.4-179.7 15.3-272.6 40.3-158.2 121.7-266.7 122.5-267.8a4.6 4.6 0 016.4-.9 4.5 4.5 0 01.9 6.5c-.8 1-81.2 108.3-121 264.7-36.7 144.1-45.5 360.7 121 574.3a4.6 4.6 0 01-.8 6.4 4.4 4.4 0 01-2.8 1M976.8 2032.8a4.2 4.2 0 01-2.8-1 4.5 4.5 0 01-.8-6.4c166.4-213.6 157.6-430.2 120.9-574.3-39.8-156.4-120.2-263.7-121-264.7a4.7 4.7 0 01.9-6.5 4.6 4.6 0 016.4.9c.8 1.1 82.2 109.6 122.6 267.8 23.7 92.9 28.8 184.6 15.3 272.6-17 109.9-63.4 214.2-137.9 309.8a4.5 4.5 0 01-3.6 1.8" class="color242d4f svgShape"/><path fill="#242d4f" d="M859.8 1355.6a633.8 633.8 0 01-117.1-10.9c-102.6-19.5-164.4-58.8-165-59.2a4.5 4.5 0 01-1.3-6.3 4.6 4.6 0 016.3-1.4c.6.4 61.2 38.9 162.1 57.9 93.1 17.6 240.6 21.8 414.5-58.2a4.7 4.7 0 016.1 2.3 4.5 4.5 0 01-2.3 6c-77.8 35.8-157 58.1-235.3 66.2a646.8 646.8 0 01-68 3.6M1161.2 1934.7a4.3 4.3 0 01-1.9-.4c-174.1-80.1-321.7-75.8-414.9-58.1-100.8 19.1-161.1 57.4-161.7 57.8a4.6 4.6 0 01-5-7.7c.6-.4 62.4-39.7 165-59.2a639.2 639.2 0 01185.1-7.3c78.3 8.1 157.5 30.4 235.3 66.2a4.5 4.5 0 012.3 6 4.7 4.7 0 01-4.2 2.7" class="color242d4f svgShape"/><path fill="#ffffff" d="M1381,1478.7H1149.9a15.1,15.1,0,0,1-15.1-15.1v-160a15,15,0,0,1,15.1-15.1H1381a15,15,0,0,1,15.1,15.1v160a15.1,15.1,0,0,1-15.1,15.1" class="colorfff svgShape"/><path fill="#242d4f" d="M1381,1483.3H1149.9a19.7,19.7,0,0,1-19.7-19.7v-160a19.7,19.7,0,0,1,19.7-19.7H1381a19.7,19.7,0,0,1,19.7,19.7v160a19.7,19.7,0,0,1-19.7,19.7m-231.1-190.2a10.5,10.5,0,0,0-10.5,10.5v160a10.5,10.5,0,0,0,10.5,10.5H1381a10.6,10.6,0,0,0,10.6-10.5v-160a10.6,10.6,0,0,0-10.6-10.5Z" class="color242d4f svgShape"/><path fill="#242d4f" d="M1288.3,1360.7a22.9,22.9,0,1,0-22.8,22.9,22.8,22.8,0,0,0,22.8-22.9" class="color242d4f svgShape"/><path fill="#242d4f" d="M1265.5,1388.2a27.5,27.5,0,1,1,27.4-27.5,27.5,27.5,0,0,1-27.4,27.5m0-45.7a18.3,18.3,0,1,0,18.2,18.2,18.3,18.3,0,0,0-18.2-18.2" class="color242d4f svgShape"/><path fill="#242d4f" d="M1265.5 1430.2a9.2 9.2 0 01-9.2-9.1v-37.5a9.2 9.2 0 1118.3 0v37.5a9.1 9.1 0 01-9.1 9.1M1364.1 1293.1H1166.8a4.7 4.7 0 01-4.6-4.6v-51a88.3 88.3 0 0188.2-88.2h30.1a88.3 88.3 0 0188.2 88.2v51a4.7 4.7 0 01-4.6 4.6m-192.7-9.2h188.1v-46.4a79.1 79.1 0 00-79-79h-30.1a79.1 79.1 0 00-79 79z" class="color242d4f svgShape"/><rect width="605.3" height="155.07" x="1819.8" y="1647.5" fill="#242d4f" class="color242d4f svgShape"/><path fill="#242d4f" d="M2425.2,1807.2H1819.8a4.7,4.7,0,0,1-4.6-4.6V1647.5a4.6,4.6,0,0,1,4.6-4.5h605.4a4.6,4.6,0,0,1,4.6,4.5v155.1a4.7,4.7,0,0,1-4.6,4.6m-600.8-9.2h596.2V1652.1H1824.4Z" class="color242d4f svgShape"/><rect width="810.9" height="52.64" x="1728.3" y="1612.9" fill="#ffffff" class="colorfff svgShape"/><path fill="#242d4f" d="M2539.1,1670.1H1728.3a4.6,4.6,0,0,1-4.6-4.6v-52.6a4.7,4.7,0,0,1,4.6-4.6h810.8a4.6,4.6,0,0,1,4.6,4.6v52.6a4.5,4.5,0,0,1-4.6,4.6m-806.2-9.1h801.7v-43.5H1732.9Z" class="color242d4f svgShape"/><polygon fill="#ffffff" points="1853.5 2245.4 1794.6 2245.4 1794.6 1665.5 1903.9 1665.5 1853.5 2245.4" class="colorfff svgShape"/><path fill="#242d4f" d="M1853.5,2250h-58.9a4.7,4.7,0,0,1-4.6-4.6V1665.5a4.6,4.6,0,0,1,4.6-4.5h109.3a4.8,4.8,0,0,1,3.4,1.4,4.7,4.7,0,0,1,1.2,3.5L1858,2245.8a4.6,4.6,0,0,1-4.5,4.2m-54.3-9.2h50.1l49.6-570.7h-99.7Z" class="color242d4f svgShape"/><polygon fill="#ffffff" points="2402.8 2245.4 2461.6 2245.4 2461.6 1665.5 2352.3 1665.5 2402.8 2245.4" class="colorfff svgShape"/><path fill="#242d4f" d="M2461.6,2250h-58.8a4.6,4.6,0,0,1-4.6-4.2l-50.5-579.9a5.2,5.2,0,0,1,1.2-3.5,4.8,4.8,0,0,1,3.4-1.4h109.3a4.6,4.6,0,0,1,4.6,4.5v579.9a4.7,4.7,0,0,1-4.6,4.6m-54.6-9.2h50V1670.1h-99.7Z" class="color242d4f svgShape"/><rect width="191.1" height="39.63" x="2096.5" y="1573.3" fill="#4d97de" class="color4d97de svgShape"/><path fill="#242d4f" d="M2287.6,1617.5H2096.5a4.7,4.7,0,0,1-4.6-4.6v-39.6a4.6,4.6,0,0,1,4.6-4.6h191.1a4.6,4.6,0,0,1,4.6,4.6v39.6a4.7,4.7,0,0,1-4.6,4.6m-186.5-9.2H2283v-30.4H2101.1Z" class="color242d4f svgShape"/><path fill="#ffffff" d="M2167.7,1351h-292a40.9,40.9,0,0,0-40.9,41v220.9h373.9V1392a41,41,0,0,0-41-41" class="colorfff svgShape"/><path fill="#242d4f" d="M2208.7,1617.5H1834.8a4.6,4.6,0,0,1-4.6-4.6v-221a45.5,45.5,0,0,1,45.5-45.5h292a45.6,45.6,0,0,1,45.6,45.5v221a4.7,4.7,0,0,1-4.6,4.6m-369.3-9.2h364.7V1391.9a36.4,36.4,0,0,0-36.4-36.3h-292a36.4,36.4,0,0,0-36.3,36.3Z" class="color242d4f svgShape"/><path fill="#4d97de" d="M2048,1481.9a26.3,26.3,0,1,0-26.3,26.3,26.3,26.3,0,0,0,26.3-26.3" class="color4d97de svgShape"/><path fill="#242d4f" d="M2021.7 1512.8a30.9 30.9 0 1130.8-30.9 30.9 30.9 0 01-30.8 30.9m0-52.5a21.7 21.7 0 1021.7 21.6 21.6 21.6 0 00-21.7-21.6M870.7 1175.2a4.7 4.7 0 01-4.6-4.6v-28.5a4.6 4.6 0 119.2 0v28.5a4.7 4.7 0 01-4.6 4.6m0-67.8a4.7 4.7 0 01-4.6-4.6v-18.4a4.7 4.7 0 014.6-4.6h20.9a4.6 4.6 0 010 9.2H875.3v13.8a4.7 4.7 0 01-4.6 4.6m649.9-18.4h-39.3a4.6 4.6 0 010-9.2h39.3a4.6 4.6 0 010 9.2m-78.6 0h-39.3a4.6 4.6 0 010-9.2H1442a4.6 4.6 0 010 9.2m-78.6 0h-39.3a4.6 4.6 0 010-9.2h39.3a4.6 4.6 0 010 9.2m-78.6 0h-39.3a4.6 4.6 0 010-9.2h39.3a4.6 4.6 0 010 9.2m-78.7 0h-39.3a4.6 4.6 0 110-9.2h39.3a4.6 4.6 0 110 9.2m-78.6 0h-39.3a4.6 4.6 0 010-9.2h39.3a4.6 4.6 0 010 9.2m-78.6 0h-39.3a4.6 4.6 0 010-9.2h39.3a4.6 4.6 0 010 9.2m-78.6 0H930.9a4.6 4.6 0 010-9.2h39.4a4.6 4.6 0 010 9.2m589.1-.5a4.6 4.6 0 01-4.5-4.6v-39.3a4.6 4.6 0 119.1 0v39.3a4.6 4.6 0 01-4.6 4.6m0-78.7a4.5 4.5 0 01-4.5-4.5V965.9a4.6 4.6 0 019.1 0v39.4a4.5 4.5 0 01-4.6 4.5M1803 1561h-25.2a4.6 4.6 0 110-9.1H1803a4.6 4.6 0 110 9.1m-64.5 0h-39.3a4.6 4.6 0 110-9.1h39.3a4.6 4.6 0 110 9.1m-78.4-.2a4.6 4.6 0 01-4.6-4.6v-39.3a4.6 4.6 0 119.2 0v39.3a4.6 4.6 0 01-4.6 4.6m0-78.6a4.7 4.7 0 01-4.6-4.6v-39.3a4.6 4.6 0 019.2 0v39.3a4.7 4.7 0 01-4.6 4.6m0-78.6a4.7 4.7 0 01-4.6-4.6v-39.3a4.6 4.6 0 119.2 0V1399a4.7 4.7 0 01-4.6 4.6m0-78.7a4.6 4.6 0 01-4.6-4.6V1281a4.6 4.6 0 019.2 0v39.3a4.6 4.6 0 01-4.6 4.6m0-78.6a4.6 4.6 0 01-4.6-4.6v-39.3a4.6 4.6 0 119.2 0v39.3a4.6 4.6 0 01-4.6 4.6m0-78.6a4.7 4.7 0 01-4.6-4.6v-39.3a4.6 4.6 0 019.2 0v39.3a4.7 4.7 0 01-4.6 4.6m0-78.6a4.7 4.7 0 01-4.6-4.6v-39.3a4.6 4.6 0 019.2 0v39.3a4.7 4.7 0 01-4.6 4.6m0-78.7a4.6 4.6 0 01-4.6-4.6V966.5a4.6 4.6 0 019.2 0v39.3a4.6 4.6 0 01-4.6 4.6" class="color242d4f svgShape"/><path fill="#ffffff" d="M861,1717.4c-27.3-6.6-50.7-18.3-69.4-34.9a80.7,80.7,0,0,1-26.9-60.4V1512.7l18.8-.6c42.1-1.4,66.2-28.9,67.2-30.1l15.1-18.1,14.7,18.2c.9,1.1,25,28.6,67.2,30l18.8.6v109.4a80.8,80.8,0,0,1-27,60.4c-18.7,16.6-42,28.3-69.4,34.9l-4.5,1.1Z" class="colorfff svgShape"/><path fill="#242d4f" d="M865.6,1723.1l-1.1-.2-4.6-1.1c-28.1-6.7-52.1-18.8-71.3-35.9a85.2,85.2,0,0,1-28.5-63.8V1512.7a4.5,4.5,0,0,1,4.4-4.6l18.8-.6c40.1-1.3,63-27.4,63.9-28.5l15.1-18a4.6,4.6,0,0,1,3.5-1.7h.1a4.6,4.6,0,0,1,3.5,1.7l14.6,18.1c1.5,1.8,24.3,27.1,63.8,28.4l18.8.6a4.5,4.5,0,0,1,4.4,4.6v109.4a85.2,85.2,0,0,1-28.5,63.8c-19.2,17.1-43.2,29.2-71.3,35.9l-4.6,1.1-1,.2m-96.3-205.9v104.9a75.9,75.9,0,0,0,25.4,57c18.1,16,40.8,27.4,67.4,33.8h0l3.5.8,3.4-.8c26.7-6.4,49.3-17.8,67.4-33.8a76.2,76.2,0,0,0,25.5-57V1517.2l-14.4-.5c-44-1.5-69.4-30.4-70.5-31.6h-.1l-11.1-13.9-11.6,13.8c-1.1,1.3-26.5,30.3-70.6,31.8Z" class="color242d4f svgShape"/><path fill="#ffffff" d="M865.6,1494.6s-29.5,35.2-81.5,36.9v90.6a61,61,0,0,0,20.4,45.8c12.8,11.3,32.3,23.6,61.1,30.6,28.7-7,48.3-19.3,61-30.6a61,61,0,0,0,20.4-45.8v-90.6c-52-1.7-81.4-36.9-81.4-36.9" class="colorfff svgShape"/><path fill="#242d4f" d="M865.6,1703h-1.1c-25-6-46.2-16.6-63-31.5a65.8,65.8,0,0,1-22-49.3v-90.6a4.7,4.7,0,0,1,4.5-4.6c49.1-1.6,77.8-35,78-35.3a4.8,4.8,0,0,1,3.6-1.6h0a4.8,4.8,0,0,1,3.5,1.6c.4.5,29,33.7,78.1,35.3a4.7,4.7,0,0,1,4.4,4.6v90.6a65.8,65.8,0,0,1-22,49.3c-16.8,14.9-38,25.5-63,31.5h-1m-76.9-167.1v86.2a56.6,56.6,0,0,0,18.9,42.4c15.4,13.7,34.9,23.5,58,29.2,23-5.7,42.5-15.5,57.9-29.2a56.6,56.6,0,0,0,18.9-42.4v-86.2a122.4,122.4,0,0,1-76.8-34.6,123,123,0,0,1-76.9,34.6" class="color242d4f svgShape"/><path fill="#4d97de" d="M1728.3,1837.8a57.7,57.7,0,0,1-57.7,57.7h-89.9V1780.2h89.9a57.6,57.6,0,0,1,57.7,57.6" class="color4d97de svgShape"/><path fill="#242d4f" d="M1670.6,1900.1h-89.9a4.7,4.7,0,0,1-4.6-4.6V1780.2a4.7,4.7,0,0,1,4.6-4.6h89.9a62.3,62.3,0,0,1,62.3,62.2,62.5,62.5,0,0,1-62.3,62.3m-85.3-9.2h85.3a53.1,53.1,0,1,0,0-106.1h-85.3Z" class="color242d4f svgShape"/><path fill="#ffffff" d="M1580.7,1780.2v115.3H1163.8a57.7,57.7,0,1,1,0-115.3Z" class="colorfff svgShape"/><path fill="#242d4f" d="M1580.7 1900.1H1163.8a62.3 62.3 0 110-124.5h416.9a4.7 4.7 0 014.6 4.6v115.3a4.7 4.7 0 01-4.6 4.6m-416.9-115.3a53.1 53.1 0 100 106.1h412.3V1784.8zM1635.4 1861.6a32.2 32.2 0 1132.2-32.2 32.2 32.2 0 01-32.2 32.2m0-55.1a23 23 0 1023 22.9 23 23 0 00-23-22.9" class="color242d4f svgShape"/><path fill="#242d4f" d="M1685.9 1878.4a4.6 4.6 0 01-2.9-1.1l-30.2-25.9a4.6 4.6 0 01-.5-6.4 4.5 4.5 0 016.5-.5l30.1 25.8a4.5 4.5 0 01.5 6.5 4.8 4.8 0 01-3.5 1.6M1531.2 1821.7H1204.7a4.6 4.6 0 010-9.2h326.5a4.6 4.6 0 110 9.2M1531.2 1857.6H1170.9a4.6 4.6 0 110-9.1h360.3a4.6 4.6 0 110 9.1" class="color242d4f svgShape"/><path fill="#4d97de" d="M1391.8,1987.4a40.8,40.8,0,1,1-40.8-40.8,40.8,40.8,0,0,1,40.8,40.8" class="color4d97de svgShape"/><path fill="#242d4f" d="M1351,2032.8a45.4,45.4,0,1,1,45.4-45.4,45.4,45.4,0,0,1-45.4,45.4m0-81.6a36.2,36.2,0,1,0,36.2,36.2,36.3,36.3,0,0,0-36.2-36.2" class="color242d4f svgShape"/><path fill="#4d97de" d="M1428.4,2035.5a40.8,40.8,0,1,1-40.8-40.8,40.8,40.8,0,0,1,40.8,40.8" class="color4d97de svgShape"/><path fill="#242d4f" d="M1387.6,2080.9a45.4,45.4,0,1,1,45.4-45.4,45.4,45.4,0,0,1-45.4,45.4m0-81.6a36.2,36.2,0,1,0,36.2,36.2,36.3,36.3,0,0,0-36.2-36.2" class="color242d4f svgShape"/><path fill="#4d97de" d="M1346.8,2021.8A40.8,40.8,0,1,1,1306,1981a40.7,40.7,0,0,1,40.8,40.8" class="color4d97de svgShape"/><path fill="#242d4f" d="M1306,2067.2a45.4,45.4,0,1,1,45.4-45.4,45.3,45.3,0,0,1-45.4,45.4m0-81.6a36.2,36.2,0,1,0,36.2,36.2,36.3,36.3,0,0,0-36.2-36.2" class="color242d4f svgShape"/><path fill="#4d97de" d="M1321.6,2076.3a40.8,40.8,0,1,1-40.8-40.8,40.8,40.8,0,0,1,40.8,40.8" class="color4d97de svgShape"/><path fill="#242d4f" d="M1280.8,2121.7a45.4,45.4,0,1,1,45.4-45.4,45.5,45.5,0,0,1-45.4,45.4m0-81.6a36.2,36.2,0,1,0,36.2,36.2,36.3,36.3,0,0,0-36.2-36.2" class="color242d4f svgShape"/><path fill="#4d97de" d="M1387.6,2076.3a40.8,40.8,0,1,1-40.8-40.8,40.7,40.7,0,0,1,40.8,40.8" class="color4d97de svgShape"/><path fill="#242d4f" d="M1346.8,2121.7a45.4,45.4,0,1,1,45.4-45.4,45.5,45.5,0,0,1-45.4,45.4m0-81.6a36.2,36.2,0,1,0,36.2,36.2,36.3,36.3,0,0,0-36.2-36.2" class="color242d4f svgShape"/><path fill="#4d97de" d="M1458.3,2076.3a40.8,40.8,0,1,1-40.8-40.8,40.8,40.8,0,0,1,40.8,40.8" class="color4d97de svgShape"/><path fill="#242d4f" d="M1417.5,2121.7a45.4,45.4,0,1,1,45.4-45.4,45.5,45.5,0,0,1-45.4,45.4m0-81.6a36.2,36.2,0,1,0,36.2,36.2,36.3,36.3,0,0,0-36.2-36.2" class="color242d4f svgShape"/><rect width="225.6" height="156.47" x="1232.7" y="2088.9" fill="#ffffff" class="colorfff svgShape"/><path fill="#242d4f" d="M1458.3,2250H1232.7a4.7,4.7,0,0,1-4.6-4.6V2088.9a4.6,4.6,0,0,1,4.6-4.5h225.6a4.6,4.6,0,0,1,4.6,4.5v156.5a4.7,4.7,0,0,1-4.6,4.6m-221-9.2h216.4V2093.5H1237.3Z" class="color242d4f svgShape"/><path fill="#242d4f" d="M1404.4 2135.4H1255a4.5 4.5 0 01-4.6-4.6 4.6 4.6 0 014.6-4.6h149.4a4.6 4.6 0 014.6 4.6 4.5 4.5 0 01-4.6 4.6M1354 2201.4h-24.3a4.6 4.6 0 01-4.6-4.6 4.7 4.7 0 014.6-4.6H1354a4.7 4.7 0 014.6 4.6 4.6 4.6 0 01-4.6 4.6M1284.1 2093.5a4.5 4.5 0 01-4.3-3l-18.9-50.3a4.8 4.8 0 012.7-5.9 4.5 4.5 0 015.9 2.7l18.9 50.3a4.6 4.6 0 01-4.3 6.2M1298.1 2044a4.6 4.6 0 01-4.5-4.1l-5.8-56a4.6 4.6 0 119.1-1l5.8 56a4.6 4.6 0 01-4.1 5h-.5M1343.4 2010.1l-1.3-.2a4.7 4.7 0 01-3.1-5.8l17.7-57.6a4.6 4.6 0 118.7 2.7l-17.6 57.6a4.6 4.6 0 01-4.4 3.3M1341.8 2093.5h-1.2a4.7 4.7 0 01-3.2-5.7l14.2-52.3a4.5 4.5 0 015.6-3.2 4.4 4.4 0 013.2 5.6l-14.1 52.3a4.6 4.6 0 01-4.5 3.4M1374.4 2050.9a3.9 3.9 0 01-2.1-.6 4.5 4.5 0 01-1.9-6.2l26.3-49.4a4.5 4.5 0 016.2-1.8 4.7 4.7 0 011.9 6.2l-26.3 49.3a4.6 4.6 0 01-4.1 2.5M1411.6 2093.5a4.1 4.1 0 01-1.9-.4 4.7 4.7 0 01-2.3-6.1l23.3-49.6a4.6 4.6 0 018.3 3.9l-23.2 49.6a4.8 4.8 0 01-4.2 2.6" class="color242d4f svgShape"/><path fill="#242d4f" d="M1295 2014.2h-.7L1268 2010a4.6 4.6 0 01-3.9-5.2 4.8 4.8 0 015.3-3.9l24.4 3.9 29.1-22.4a4.6 4.6 0 015.6 7.3l-30.7 23.5a4.2 4.2 0 01-2.8 1M1297 2032.8a4.6 4.6 0 01-1.7-8.8l46.4-18.7a4.6 4.6 0 013.4 8.6l-46.4 18.6-1.7.3M1350.9 1985.6a4.4 4.4 0 01-3.8-2l-19.6-29.3a4.6 4.6 0 117.6-5.1l17.8 26.6 34.6-8.7a4.4 4.4 0 015.5 3.3 4.6 4.6 0 01-3.3 5.6l-37.7 9.5h-1.1M1384.9 2031.2a4.8 4.8 0 01-3.8-2l-18.1-26.1a4.6 4.6 0 011.2-6.4 4.5 4.5 0 016.3 1.2l16.4 23.4 35.7-9.2a4.7 4.7 0 015.6 3.3 4.6 4.6 0 01-3.3 5.6l-38.8 10-1.2.2M1420.1 2075.4a4.7 4.7 0 01-3.9-2.2l-19.9-31.4a4.6 4.6 0 011.5-6.3 4.7 4.7 0 016.3 1.4l18 28.5 31.9-9.1a4.5 4.5 0 015.6 3.2 4.6 4.6 0 01-3.1 5.7l-35.1 10-1.3.2M1346.8 2075.4a4.3 4.3 0 01-2.6-.9l-30.8-21.1a4.6 4.6 0 01-1.1-6.4 4.5 4.5 0 016.3-1.2l28.7 19.7 33.5-14.6a4.6 4.6 0 113.7 8.4l-35.8 15.7a5.8 5.8 0 01-1.9.4M1275.9 2071.7h-.2l-34.5-1.3a4.6 4.6 0 01-4.4-4.7 4.7 4.7 0 014.8-4.5l32 1.2 19.1-26.5a4.6 4.6 0 117.4 5.4l-20.5 28.5a4.4 4.4 0 01-3.7 1.9M692.5 908.1a4.6 4.6 0 01-4.6-4.6V874.6a4.7 4.7 0 014.6-4.6 4.6 4.6 0 014.6 4.6v28.9a4.5 4.5 0 01-4.6 4.6M678.7 913.9a4.7 4.7 0 01-3.3-1.4l-20.5-20.4a4.6 4.6 0 016.5-6.5L681.9 906a4.6 4.6 0 010 6.5 4.7 4.7 0 01-3.2 1.4M672.9 927.7h-29a4.6 4.6 0 010-9.1h29a4.6 4.6 0 110 9.1M658.2 962.1a5.1 5.1 0 01-3.3-1.3 4.6 4.6 0 010-6.5l20.5-20.5a4.6 4.6 0 016.5 6.5l-20.5 20.5a5 5 0 01-3.2 1.3M692.5 976.3a4.6 4.6 0 01-4.6-4.6V942.8a4.6 4.6 0 014.6-4.6 4.5 4.5 0 014.6 4.6v28.9a4.5 4.5 0 01-4.6 4.6M726.9 962.1a5.1 5.1 0 01-3.3-1.3l-20.4-20.5a4.6 4.6 0 010-6.5 4.5 4.5 0 016.4 0l20.5 20.5a4.6 4.6 0 010 6.5 5 5 0 01-3.2 1.3M741.1 927.7h-29a4.6 4.6 0 010-9.1h29a4.6 4.6 0 110 9.1M706.4 913.9a4.3 4.3 0 01-3.2-1.4 4.6 4.6 0 010-6.5l20.4-20.4a4.6 4.6 0 016.5 6.5l-20.5 20.4a4.5 4.5 0 01-3.2 1.4M2473.8 1459.9a4.5 4.5 0 01-4.6-4.5v-29a4.6 4.6 0 119.1 0v29a4.5 4.5 0 01-4.5 4.5M2459.9 1465.7a4.7 4.7 0 01-3.3-1.4l-20.4-20.4a4.6 4.6 0 010-6.5 4.5 4.5 0 016.4 0l20.5 20.5a4.6 4.6 0 01-3.2 7.8M2454.1 1479.6h-28.9a4.6 4.6 0 01-4.6-4.6 4.5 4.5 0 014.6-4.6h28.9a4.5 4.5 0 014.6 4.6 4.6 4.6 0 01-4.6 4.6M2439.4 1513.9a4.4 4.4 0 01-3.2-1.3 4.6 4.6 0 010-6.5l20.4-20.5a4.6 4.6 0 016.5 6.5l-20.5 20.5a4.2 4.2 0 01-3.2 1.3M2473.8 1528.1a4.5 4.5 0 01-4.6-4.6v-28.9a4.6 4.6 0 119.1 0v28.9a4.5 4.5 0 01-4.5 4.6M2508.1 1513.9a4.4 4.4 0 01-3.2-1.3l-20.5-20.5a4.6 4.6 0 016.5-6.5l20.4 20.5a4.6 4.6 0 010 6.5 4.2 4.2 0 01-3.2 1.3M2522.3 1479.6h-28.9a4.6 4.6 0 01-4.6-4.6 4.5 4.5 0 014.6-4.6h28.9a4.5 4.5 0 014.6 4.6 4.6 4.6 0 01-4.6 4.6M2487.6 1465.7a4.7 4.7 0 01-3.2-1.4 4.5 4.5 0 010-6.4l20.5-20.5a4.5 4.5 0 016.4 0 4.6 4.6 0 010 6.5l-20.4 20.4a4.7 4.7 0 01-3.3 1.4" class="color242d4f svgShape"/></svg>